Labor-Pax-regular.ufo
<glyph name="A" format="1">
  <advance width="951"/>
  <unicode hex="0041"/>
  <outline>
    <contour>
      <point x="305.375" y="800" type="curve"/>
      <point x="381.742" y="800" type="line"/>
      <point x="413.871" y="800" type="line"/>
      <point x="535.941" y="800" type="line"/>
      <point x="568.07" y="800" type="line"/>
      <point x="848.734" y="-37.5" type="line"/>
      <point x="848.734" y="-37.5"/>
      <point x="848.777" y="-37.5"/>
      <point x="883.5" y="-106.25" type="curve" smooth="yes"/>
      <point x="909.202" y="-157.14"/>
      <point x="946" y="-200"/>
      <point x="946" y="-200" type="curve"/>
      <point x="903.226" y="-200" type="line"/>
      <point x="803.129" y="-200" type="line"/>
      <point x="742.875" y="-200" type="line"/>
      <point x="742.875" y="-126.074" type="line"/>
      <point x="592.191" y="298.145" type="line"/>
      <point x="357.621" y="298.145" type="line"/>
      <point x="214.75" y="-104.102" type="line"/>
      <point x="214.75" y="-200" type="line"/>
      <point x="180.668" y="-200" type="line"/>
      <point x="154.398" y="-200" type="line"/>
      <point x="150.492" y="-200" type="line"/>
      <point x="46.5859" y="-200" type="line"/>
      <point x="11.625" y="-200" type="line"/>
      <point x="11.625" y="-200"/>
      <point x="48.4219" y="-157.14"/>
      <point x="74.125" y="-106.25" type="curve" smooth="yes"/>
      <point x="85.7148" y="-83.2822"/>
      <point x="80.6016" y="-93.4854"/>
      <point x="85.7461" y="-83.3008" type="curve" smooth="yes"/>
      <point x="349.613" y="704.102" type="line" smooth="yes"/>
      <point x="360.505" y="741.701"/>
      <point x="347.945" y="766.707"/>
      <point x="341.508" y="773.145" type="curve" smooth="yes"/>
      <point x="332.028" y="782.624"/>
      <point x="305.375" y="800"/>
    </contour>
    <contour>
      <point x="474.906" y="628.223" type="line"/>
      <point x="402.738" y="425" type="line"/>
      <point x="547.074" y="425" type="line"/>
    </contour>
  </outline>
</glyph>
<glyph name="B" format="1">
  <advance width="1009"/>
  <unicode hex="0042"/>
  <outline>
    <contour>
      <point x="101.509" y="797.844" type="curve"/>
      <point x="160.281" y="797.844" type="line"/>
      <point x="235.384" y="797.844" type="line"/>
      <point x="238.514" y="797.844" type="line"/>
      <point x="293.471" y="797.844" type="line"/>
      <point x="595.937" y="797.844" type="line"/>
      <point x="622.145" y="797.844" type="line"/>
      <point x="622.145" y="797.844"/>
      <point x="783.694" y="757.467"/>
      <point x="783.694" y="547.501" type="curve" smooth="yes"/>
      <point x="783.694" y="488.511"/>
      <point x="767.256" y="442.939"/>
      <point x="743.601" y="407.855" type="curve"/>
      <point x="801.806" y="379.2"/>
      <point x="908.866" y="300.555"/>
      <point x="908.866" y="109.399" type="curve" smooth="yes"/>
      <point x="908.866" y="-153.057"/>
      <point x="648.353" y="-203.529"/>
      <point x="648.353" y="-203.529" type="curve"/>
      <point x="627.229" y="-203.529" type="line"/>
      <point x="293.471" y="-203.529" type="line"/>
      <point x="254.16" y="-203.529" type="line"/>
      <point x="235.384" y="-203.529" type="line"/>
      <point x="160.281" y="-203.529" type="line"/>
      <point x="101.509" y="-203.529" type="line" smooth="yes"/>
      <point x="101.509" y="-203.529"/>
      <point x="140.463" y="-151.567"/>
      <point x="154.413" y="-109.161" type="curve" smooth="yes"/>
      <point x="156.748" y="-102.054"/>
      <point x="158.66" y="-94.4102"/>
      <point x="160.281" y="-86.6699" type="curve" smooth="yes"/>
      <point x="160.281" y="678.735" type="line" smooth="yes"/>
      <point x="158.658" y="686.645"/>
      <point x="156.754" y="694.356"/>
      <point x="154.413" y="701.618" type="curve" smooth="yes"/>
      <point x="140.463" y="744.835"/>
      <point x="101.509" y="797.844"/>
    </contour>
    <contour>
      <point x="293.471" y="672.672" type="line"/>
      <point x="293.471" y="422.329" type="line"/>
      <point x="570.805" y="422.329" type="line" smooth="yes"/>
      <point x="591.039" y="423.116"/>
      <point x="655.589" y="434.773"/>
      <point x="655.589" y="552.879" type="curve" smooth="yes"/>
      <point x="655.589" y="646.234"/>
      <point x="615.16" y="668.298"/>
      <point x="588.212" y="672.672" type="curve"/>
    </contour>
    <contour>
      <point x="293.471" y="297.157" type="line"/>
      <point x="293.471" y="-78.3574" type="line"/>
      <point x="627.229" y="-78.3574" type="line"/>
      <point x="627.229" y="-78.3574"/>
      <point x="748.783" y="-58.8242"/>
      <point x="748.783" y="116.147" type="curve" smooth="yes"/>
      <point x="748.783" y="291.118"/>
      <point x="595.937" y="297.157"/>
      <point x="595.937" y="297.157" type="curve"/>
    </contour>
  </outline>
</glyph>
<glyph name="C" format="1">
  <advance width="925"/>
  <unicode hex="0043"/>
  <outline>
    <contour>
      <point x="302.003" y="797.541" type="line"/>
      <point x="302.003" y="797.542" type="line"/>
      <point x="567.028" y="797.542" type="line"/>
      <point x="682.402" y="797.542" type="line"/>
      <point x="716.877" y="797.542" type="line"/>
      <point x="808.157" y="621.25" type="line"/>
      <point x="808.157" y="621.25"/>
      <point x="745.206" y="634.607"/>
      <point x="656.154" y="656.509" type="curve" smooth="yes"/>
      <point x="592.437" y="672.18"/>
      <point x="507.774" y="672.18"/>
      <point x="507.774" y="672.18" type="curve"/>
      <point x="337.065" y="672.18" type="line"/>
      <point x="337.065" y="672.18"/>
      <point x="186.629" y="609.498"/>
      <point x="186.629" y="296.09" type="curve" smooth="yes"/>
      <point x="186.629" y="-17.3184"/>
      <point x="337.065" y="-80"/>
      <point x="337.065" y="-80" type="curve"/>
      <point x="540.389" y="-80" type="line"/>
      <point x="540.389" y="-80"/>
      <point x="634.403" y="-80"/>
      <point x="705.222" y="-64.3291" type="curve" smooth="yes"/>
      <point x="804.2" y="-42.4277"/>
      <point x="874.168" y="-29.0713"/>
      <point x="874.168" y="-29.0713" type="curve" smooth="yes"/>
      <point x="772.801" y="-205.363" type="line"/>
      <point x="734.506" y="-205.363" type="line"/>
      <point x="308.271" y="-205.363" type="line"/>
      <point x="308.271" y="-205.266" type="line"/>
      <point x="275.252" y="-203.149"/>
      <point x="29.9258" y="-171.627"/>
      <point x="29.9258" y="296.089" type="curve" smooth="yes"/>
      <point x="29.9258" y="741.349"/>
      <point x="252.16" y="791.167"/>
      <point x="302.003" y="796.758" type="curve"/>
    </contour>
  </outline>
</glyph>
<glyph name="D" format="1">
  <advance width="1000"/>
  <unicode hex="0044"/>
  <outline>
    <contour>
      <point x="99.6367" y="800" type="curve"/>
      <point x="166.824" y="800" type="line"/>
      <point x="232.938" y="800" type="line"/>
      <point x="292.605" y="800" type="line"/>
      <point x="295.242" y="800" type="line"/>
      <point x="568.094" y="800" type="line"/>
      <point x="568.094" y="800"/>
      <point x="849.344" y="800"/>
      <point x="849.344" y="300" type="curve" smooth="yes"/>
      <point x="849.344" y="-200"/>
      <point x="568.094" y="-200"/>
      <point x="568.094" y="-200" type="curve"/>
      <point x="357.547" y="-200" type="line"/>
      <point x="232.938" y="-200" type="line"/>
      <point x="99.6367" y="-200" type="line" smooth="yes"/>
      <point x="99.6367" y="-200"/>
      <point x="138.483" y="-148.266"/>
      <point x="152.371" y="-106.055" type="curve" smooth="yes"/>
      <point x="166.238" y="-63.8428"/>
      <point x="166.238" y="-3.90625"/>
      <point x="166.238" y="-3.90625" type="curve"/>
      <point x="166.824" y="-3.90625" type="line"/>
      <point x="166.824" y="597.07" type="line"/>
      <point x="166.238" y="597.07" type="line"/>
      <point x="166.238" y="597.07"/>
      <point x="166.235" y="659.038"/>
      <point x="152.371" y="702.734" type="curve" smooth="yes"/>
      <point x="138.483" y="746.431"/>
      <point x="99.6367" y="800"/>
    </contour>
    <contour>
      <point x="295.242" y="675" type="line"/>
      <point x="295.242" y="-3.90625" type="line"/>
      <point x="295.242" y="-3.90625"/>
      <point x="295.363" y="-39.4023"/>
      <point x="301.297" y="-75" type="curve"/>
      <point x="543.094" y="-75" type="line"/>
      <point x="543.094" y="-75"/>
      <point x="693.094" y="-12.5"/>
      <point x="693.094" y="300" type="curve" smooth="yes"/>
      <point x="693.094" y="612.5"/>
      <point x="543.094" y="675"/>
      <point x="543.094" y="675" type="curve"/>
    </contour>
  </outline>
</glyph>
<glyph name="E" format="1">
  <advance width="964"/>
  <unicode hex="0045"/>
  <outline>
    <contour>
      <point x="68.8701" y="800" type="curve"/>
      <point x="135.667" y="800" type="line"/>
      <point x="203.636" y="800" type="line"/>
      <point x="271.019" y="800" type="line"/>
      <point x="694.749" y="800" type="line"/>
      <point x="725.999" y="800" type="line"/>
      <point x="827.073" y="624.219" type="line" smooth="yes"/>
      <point x="827.073" y="624.219"/>
      <point x="759.694" y="659.375"/>
      <point x="658.616" y="659.375" type="curve" smooth="yes"/>
      <point x="271.019" y="659.375" type="line"/>
      <point x="271.019" y="425" type="line"/>
      <point x="609.593" y="425" type="line" smooth="yes"/>
      <point x="618.27" y="427.069"/>
      <point x="627.29" y="429.986"/>
      <point x="635.276" y="434.18" type="curve" smooth="yes"/>
      <point x="661.978" y="448.228"/>
      <point x="694.749" y="487.5"/>
      <point x="694.749" y="487.5" type="curve" smooth="yes"/>
      <point x="694.749" y="425" type="line"/>
      <point x="694.749" y="300" type="line"/>
      <point x="271.019" y="300" type="line"/>
      <point x="271.019" y="2.14844" type="line"/>
      <point x="271.019" y="2.14844"/>
      <point x="271.171" y="-27.3164"/>
      <point x="275.804" y="-59.8633" type="curve"/>
      <point x="612.229" y="-59.8633" type="line" smooth="yes"/>
      <point x="617.075" y="-59.5908"/>
      <point x="622.11" y="-59.375"/>
      <point x="627.366" y="-59.375" type="curve" smooth="yes"/>
      <point x="728.444" y="-59.375"/>
      <point x="795.823" y="-24.2188"/>
      <point x="795.823" y="-24.2188" type="curve" smooth="yes"/>
      <point x="694.749" y="-200" type="line"/>
      <point x="663.499" y="-200" type="line"/>
      <point x="663.499" y="-200.488" type="line"/>
      <point x="163.499" y="-200.488" type="line"/>
      <point x="163.499" y="-200" type="line"/>
      <point x="68.8701" y="-200" type="line" smooth="yes"/>
      <point x="68.8701" y="-200"/>
      <point x="108.143" y="-146.645"/>
      <point x="122.19" y="-103.125" type="curve" smooth="yes"/>
      <point x="131.312" y="-74.8184"/>
      <point x="134.533" y="-39.1123"/>
      <point x="135.667" y="-17.3828" type="curve" smooth="yes"/>
      <point x="135.667" y="627.148" type="line" smooth="yes"/>
      <point x="134.529" y="647.728"/>
      <point x="131.301" y="681.541"/>
      <point x="122.19" y="708.301" type="curve" smooth="yes"/>
      <point x="108.143" y="749.499"/>
      <point x="68.8701" y="800"/>
    </contour>
  </outline>
</glyph>
<glyph name="F" format="1">
  <advance width="868"/>
  <unicode hex="0046"/>
  <outline>
    <contour>
      <point x="14.8252" y="802.618" type="curve"/>
      <point x="76.4746" y="802.618" type="line"/>
      <point x="77.1611" y="802.618" type="line"/>
      <point x="212.633" y="802.618" type="line"/>
      <point x="719.668" y="802.618" type="line"/>
      <point x="720.748" y="802.618" type="line"/>
      <point x="831.579" y="645.55" type="line"/>
      <point x="773.547" y="680.805"/>
      <point x="705.356" y="674.282"/>
      <point x="643.098" y="676.964" type="curve" smooth="yes"/>
      <point x="203.307" y="676.964" type="line"/>
      <point x="203.307" y="425.654" type="line"/>
      <point x="614.825" y="425.654" type="line"/>
      <point x="613.932" y="362.824"/>
      <point x="614.825" y="300"/>
      <point x="614.825" y="237.173" type="curve"/>
      <point x="614.825" y="237.173"/>
      <point x="560.307" y="268.318"/>
      <point x="516.56" y="282.33" type="curve" smooth="yes"/>
      <point x="472.812" y="296.357"/>
      <point x="426.344" y="300"/>
      <point x="426.344" y="300" type="curve"/>
      <point x="203.307" y="300" type="line"/>
      <point x="203.307" y="-29.8428" type="line"/>
      <point x="203.307" y="-29.8428"/>
      <point x="206.489" y="-65.5557"/>
      <point x="220.585" y="-108.966" type="curve" smooth="yes"/>
      <point x="234.706" y="-152.376"/>
      <point x="281.841" y="-202.618"/>
      <point x="281.841" y="-202.618" type="curve"/>
      <point x="140.479" y="-202.618" type="line"/>
      <point x="14.8252" y="-202.618" type="line" smooth="yes"/>
      <point x="14.8252" y="-202.618"/>
      <point x="48.9043" y="-152.376"/>
      <point x="63.0254" y="-108.966" type="curve" smooth="yes"/>
      <point x="72.1338" y="-80.915"/>
      <point x="76.4922" y="-51.5586"/>
      <point x="77.6523" y="-29.8428" type="curve" smooth="yes"/>
      <point x="76.4746" y="620.812" type="line" smooth="yes"/>
      <point x="75.3135" y="642.528"/>
      <point x="72.1338" y="677.971"/>
      <point x="63.0254" y="706.021" type="curve" smooth="yes"/>
      <point x="48.9043" y="749.431"/>
      <point x="14.8252" y="802.618"/>
    </contour>
  </outline>
</glyph>
<glyph name="G" format="1">
  <advance width="877"/>
  <unicode hex="0047"/>
  <outline>
    <contour>
      <point x="274.479" y="803.863" type="line"/>
      <point x="274.481" y="803.863" type="line"/>
      <point x="538.461" y="803.863" type="line"/>
      <point x="653.477" y="803.863" type="line"/>
      <point x="687.815" y="803.863" type="line"/>
      <point x="778.638" y="628.268" type="line"/>
      <point x="778.638" y="628.268"/>
      <point x="715.936" y="641.572"/>
      <point x="627.234" y="663.387" type="curve" smooth="yes"/>
      <point x="563.769" y="678.995"/>
      <point x="479.539" y="678.995"/>
      <point x="479.539" y="678.995" type="curve"/>
      <point x="306.089" y="678.995" type="line"/>
      <point x="306.186" y="678.604" type="line"/>
      <point x="306.186" y="678.604"/>
      <point x="156.344" y="616.171"/>
      <point x="156.344" y="304" type="curve" smooth="yes"/>
      <point x="156.344" y="14.4854"/>
      <point x="285.04" y="-60.1143"/>
      <point x="303.747" y="-69.4336" type="curve"/>
      <point x="512.023" y="-71.5801" type="line" smooth="yes"/>
      <point x="512.029" y="-71.5596"/>
      <point x="512.12" y="-71.1895"/>
      <point x="512.12" y="-71.1895" type="curve"/>
      <point x="512.12" y="-71.1895"/>
      <point x="620.537" y="-60.8428"/>
      <point x="621.087" y="38.9482" type="curve" smooth="yes"/>
      <point x="621.744" y="158.054"/>
      <point x="618.844" y="302.732"/>
      <point x="618.844" y="302.732" type="curve"/>
      <point x="842.436" y="301.659" type="line"/>
      <point x="842.436" y="301.659"/>
      <point x="767.489" y="239.041"/>
      <point x="762.247" y="176.889" type="curve" smooth="yes"/>
      <point x="756.606" y="110.002"/>
      <point x="771.856" y="-40.7148"/>
      <point x="730.64" y="-99.9678" type="curve" smooth="yes"/>
      <point x="685.603" y="-164.713"/>
      <point x="556.169" y="-197.326"/>
      <point x="514.949" y="-197.326" type="curve" smooth="yes"/>
      <point x="512.119" y="-197.326"/>
      <point x="509.653" y="-196.776"/>
      <point x="507.535" y="-195.668" type="curve" smooth="yes"/>
      <point x="273.212" y="-195.668" type="line"/>
      <point x="273.309" y="-194.985" type="line"/>
      <point x="227.883" y="-190.511"/>
      <point x="0.256836" y="-145.65"/>
      <point x="0.256836" y="304" type="curve" smooth="yes"/>
      <point x="0.256836" y="757.443"/>
      <point x="231.801" y="799.232"/>
      <point x="274.479" y="803.083" type="curve"/>
    </contour>
  </outline>
</glyph>
<glyph name="H" format="1">
  <advance width="902"/>
  <unicode hex="0048"/>
  <outline>
    <contour>
      <point x="51.4463" y="800" type="curve"/>
      <point x="118.731" y="800" type="line"/>
      <point x="185.04" y="800" type="line"/>
      <point x="251.837" y="800" type="line"/>
      <point x="251.837" y="425" type="line"/>
      <point x="663.458" y="425" type="line"/>
      <point x="663.458" y="800" type="line"/>
      <point x="796.563" y="800" type="line"/>
      <point x="863.946" y="800" type="line" smooth="yes"/>
      <point x="863.946" y="800"/>
      <point x="824.948" y="747.064"/>
      <point x="811.017" y="703.906" type="curve" smooth="yes"/>
      <point x="802.443" y="677.303"/>
      <point x="798.404" y="644.093"/>
      <point x="796.563" y="622.461" type="curve" smooth="yes"/>
      <point x="796.563" y="-21.1914" type="line" smooth="yes"/>
      <point x="797.707" y="-42.7803"/>
      <point x="800.855" y="-77.9639"/>
      <point x="809.845" y="-105.859" type="curve" smooth="yes"/>
      <point x="823.776" y="-149.017"/>
      <point x="863.946" y="-200"/>
      <point x="863.946" y="-200" type="curve" smooth="yes"/>
      <point x="754.571" y="-200" type="line"/>
      <point x="582.696" y="-200" type="line" smooth="yes"/>
      <point x="582.696" y="-200"/>
      <point x="631.086" y="-149.017"/>
      <point x="648.321" y="-105.859" type="curve" smooth="yes"/>
      <point x="657.085" y="-83.876"/>
      <point x="661.327" y="-57.3125"/>
      <point x="663.458" y="-36.4258" type="curve" smooth="yes"/>
      <point x="663.458" y="300" type="line"/>
      <point x="251.837" y="300" type="line"/>
      <point x="251.837" y="-36.4258" type="line" smooth="yes"/>
      <point x="253.967" y="-57.3125"/>
      <point x="258.307" y="-83.876"/>
      <point x="267.071" y="-105.859" type="curve" smooth="yes"/>
      <point x="284.307" y="-149.017"/>
      <point x="332.696" y="-200"/>
      <point x="332.696" y="-200" type="curve" smooth="yes"/>
      <point x="185.821" y="-200" type="line"/>
      <point x="51.4463" y="-200" type="line" smooth="yes"/>
      <point x="51.4463" y="-200"/>
      <point x="91.5186" y="-149.017"/>
      <point x="105.45" y="-105.859" type="curve" smooth="yes"/>
      <point x="114.143" y="-78.8857"/>
      <point x="117.489" y="-44.8838"/>
      <point x="118.731" y="-23.1445" type="curve" smooth="yes"/>
      <point x="118.731" y="622.461" type="line" smooth="yes"/>
      <point x="116.89" y="644.093"/>
      <point x="112.852" y="677.303"/>
      <point x="104.278" y="703.906" type="curve" smooth="yes"/>
      <point x="90.3477" y="747.064"/>
      <point x="51.4463" y="800"/>
    </contour>
  </outline>
</glyph>
<glyph name="I" format="1">
  <advance width="431"/>
  <unicode hex="0049"/>
  <outline>
    <contour>
      <point x="77.8779" y="797.053" type="curve"/>
      <point x="212.489" y="797.053" type="line"/>
      <point x="212.489" y="796.856" type="line"/>
      <point x="221.365" y="796.856" type="line"/>
      <point x="221.365" y="797.053" type="line"/>
      <point x="355.977" y="797.053" type="line"/>
      <point x="355.977" y="797.053"/>
      <point x="316.846" y="745.569"/>
      <point x="302.815" y="703.605" type="curve" smooth="yes"/>
      <point x="300.327" y="696.154"/>
      <point x="298.258" y="688.129"/>
      <point x="296.572" y="680" type="curve" smooth="yes"/>
      <point x="296.572" y="-67.8701" type="line" smooth="yes"/>
      <point x="298.639" y="-81.502"/>
      <point x="301.553" y="-95.6084"/>
      <point x="305.741" y="-108.156" type="curve" smooth="yes"/>
      <point x="319.772" y="-150.12"/>
      <point x="359" y="-201.604"/>
      <point x="359" y="-201.604" type="curve"/>
      <point x="296.572" y="-201.604" type="line"/>
      <point x="296.572" y="-201.993" type="line"/>
      <point x="144.501" y="-201.993" type="line"/>
      <point x="144.501" y="-201.604" type="line"/>
      <point x="78.0732" y="-201.604" type="line" smooth="yes"/>
      <point x="78.0732" y="-201.604"/>
      <point x="117.203" y="-150.12"/>
      <point x="131.235" y="-108.156" type="curve" smooth="yes"/>
      <point x="139.831" y="-82.4053"/>
      <point x="143.198" y="-50.2227"/>
      <point x="144.501" y="-29.0479" type="curve" smooth="yes"/>
      <point x="144.501" y="620.888" type="line" smooth="yes"/>
      <point x="143.367" y="641.843"/>
      <point x="140.246" y="676.319"/>
      <point x="131.138" y="703.605" type="curve" smooth="yes"/>
      <point x="117.106" y="745.569"/>
      <point x="77.8789" y="797.053"/>
    </contour>
  </outline>
</glyph>
<glyph name="J" format="1">
  <advance width="1000"/>
  <unicode hex="004A"/>
  <outline>
    <contour>
      <point x="570.539" y="800.031" type="curve"/>
      <point x="570.538" y="800.031" type="line"/>
      <point x="637.891" y="800.031" type="line"/>
      <point x="705.242" y="800.031" type="line"/>
      <point x="773.278" y="800.031" type="line"/>
      <point x="839.946" y="800.031" type="line"/>
      <point x="839.946" y="800.031"/>
      <point x="800.789" y="746.7"/>
      <point x="786.748" y="703.201" type="curve" smooth="yes"/>
      <point x="777.63" y="674.907"/>
      <point x="774.411" y="639.217"/>
      <point x="773.278" y="617.497" type="curve" smooth="yes"/>
      <point x="773.278" y="-102.583" type="line" smooth="yes"/>
      <point x="773.378" y="-102.778"/>
      <point x="773.472" y="-102.976"/>
      <point x="773.571" y="-103.169" type="curve" smooth="yes"/>
      <point x="796.085" y="-146.669"/>
      <point x="858.981" y="-200"/>
      <point x="858.981" y="-200" type="curve" smooth="yes"/>
      <point x="642.967" y="-200" type="line"/>
      <point x="642.967" y="-165.25" type="line"/>
      <point x="600.685" y="-186.344"/>
      <point x="538.567" y="-199.902"/>
      <point x="448.428" y="-199.902" type="curve" smooth="yes"/>
      <point x="56.7578" y="-199.902"/>
      <point x="59.1504" y="40.5098"/>
      <point x="59.3467" y="48.8125" type="curve"/>
      <point x="58.4688" y="48.8125" type="line"/>
      <point x="59.0547" y="169.558" type="line"/>
      <point x="59.0547" y="169.558"/>
      <point x="95.9756" y="130.303"/>
      <point x="126.113" y="116.262" type="curve" smooth="yes"/>
      <point x="156.252" y="102.246"/>
      <point x="199.029" y="102.206"/>
      <point x="199.029" y="102.206" type="curve"/>
      <point x="199.811" y="49.9834" type="line" smooth="yes"/>
      <point x="200.356" y="47.7627"/>
      <point x="232.12" y="-77.9854"/>
      <point x="422.658" y="-77.9854" type="curve" smooth="yes"/>
      <point x="614.891" y="-77.9854"/>
      <point x="635.939" y="19.041"/>
      <point x="635.939" y="19.041" type="curve"/>
      <point x="637.892" y="20.5049" type="line"/>
      <point x="637.892" y="597.975" type="line"/>
      <point x="637.892" y="597.975"/>
      <point x="637.854" y="659.7"/>
      <point x="623.835" y="703.201" type="curve" smooth="yes"/>
      <point x="609.794" y="746.7"/>
      <point x="570.539" y="800.031"/>
    </contour>
  </outline>
</glyph>
<glyph name="K" format="1">
  <advance width="1000"/>
  <unicode hex="004B"/>
  <outline>
    <contour>
      <point x="60.6875" y="798.375" type="curve"/>
      <point x="127.777" y="798.375" type="line"/>
      <point x="193.798" y="798.375" type="line"/>
      <point x="260.305" y="798.375" type="line"/>
      <point x="260.305" y="423.741" type="line"/>
      <point x="629.59" y="795.944" type="line"/>
      <point x="824.15" y="795.944" type="line"/>
      <point x="330.311" y="311.828" type="line"/>
      <point x="861.002" y="-200" type="line"/>
      <point x="663.232" y="-200" type="line"/>
      <point x="260.305" y="199.428" type="line"/>
      <point x="260.305" y="-34.4141" type="line" smooth="yes"/>
      <point x="262.426" y="-55.2109"/>
      <point x="266.649" y="-81.6592"/>
      <point x="275.375" y="-103.546" type="curve" smooth="yes"/>
      <point x="292.536" y="-146.517"/>
      <point x="340.715" y="-197.277"/>
      <point x="340.715" y="-197.277" type="curve" smooth="yes"/>
      <point x="194.479" y="-197.277" type="line"/>
      <point x="60.6875" y="-197.277" type="line" smooth="yes"/>
      <point x="60.6875" y="-197.277"/>
      <point x="100.683" y="-146.517"/>
      <point x="114.554" y="-103.546" type="curve" smooth="yes"/>
      <point x="123.504" y="-75.7725"/>
      <point x="126.639" y="-40.7412"/>
      <point x="127.777" y="-19.2461" type="curve" smooth="yes"/>
      <point x="127.777" y="620.732" type="line" smooth="yes"/>
      <point x="125.979" y="642.239"/>
      <point x="122.042" y="675.94"/>
      <point x="113.388" y="702.796" type="curve" smooth="yes"/>
      <point x="99.5166" y="745.766"/>
      <point x="60.6875" y="798.375"/>
    </contour>
  </outline>
</glyph>
<glyph name="L" format="1">
  <advance width="932"/>
  <unicode hex="004C"/>
  <outline>
    <contour>
      <point x="99.7607" y="799" type="curve" smooth="yes"/>
      <point x="165.774" y="799" type="line"/>
      <point x="233.141" y="799" type="line"/>
      <point x="299.832" y="799" type="line"/>
      <point x="366.521" y="799" type="line" smooth="yes"/>
      <point x="366.521" y="799"/>
      <point x="327.653" y="746.193"/>
      <point x="313.75" y="703.121" type="curve" smooth="yes"/>
      <point x="299.869" y="660.049"/>
      <point x="299.832" y="598.93"/>
      <point x="299.832" y="598.93" type="curve"/>
      <point x="299.832" y="-1.28223" type="line"/>
      <point x="299.832" y="-1.28223"/>
      <point x="299.885" y="-32.8789"/>
      <point x="305.051" y="-66.6191" type="curve"/>
      <point x="631.93" y="-66.6191" type="line"/>
      <point x="631.93" y="-66.6191"/>
      <point x="693.048" y="-66.5791"/>
      <point x="736.12" y="-52.7012" type="curve" smooth="yes"/>
      <point x="779.193" y="-38.7979"/>
      <point x="832" y="0.0712891"/>
      <point x="832" y="0.0712891" type="curve"/>
      <point x="832" y="-66.6191" type="line"/>
      <point x="832" y="-200" type="line"/>
      <point x="365.556" y="-200" type="line" smooth="yes"/>
      <point x="365.665" y="-200.15"/>
      <point x="366.521" y="-201.353"/>
      <point x="366.521" y="-201.353" type="curve"/>
      <point x="233.141" y="-201.353" type="line"/>
      <point x="99.7607" y="-201.353" type="line" smooth="yes"/>
      <point x="99.7607" y="-201.353"/>
      <point x="138.533" y="-148.643"/>
      <point x="152.437" y="-105.57" type="curve" smooth="yes"/>
      <point x="161.465" y="-77.5547"/>
      <point x="164.652" y="-42.1182"/>
      <point x="165.774" y="-20.6133" type="curve" smooth="yes"/>
      <point x="165.774" y="618.261" type="line" smooth="yes"/>
      <point x="164.652" y="639.767"/>
      <point x="161.465" y="675.105"/>
      <point x="152.437" y="703.121" type="curve" smooth="yes"/>
      <point x="138.533" y="746.193"/>
      <point x="99.7607" y="799"/>
    </contour>
  </outline>
</glyph>
<glyph name="M" format="1">
  <advance width="1003"/>
  <unicode hex="004D"/>
  <outline>
    <contour>
      <point x="187.577" y="800" type="curve"/>
      <point x="187.578" y="799.998" type="line"/>
      <point x="343.789" y="799.998" type="line"/>
      <point x="398.463" y="649.548" type="line"/>
      <point x="506.834" y="382.134" type="line"/>
      <point x="640.688" y="721.111" type="line"/>
      <point x="640.591" y="721.893" type="line"/>
      <point x="641.176" y="722.187" type="line"/>
      <point x="671.833" y="799.999" type="line"/>
      <point x="768.684" y="799.999" type="line"/>
      <point x="828.044" y="799.999" type="line"/>
      <point x="828.044" y="799.999"/>
      <point x="785.512" y="753.35"/>
      <point x="784.305" y="708.225" type="curve" smooth="yes"/>
      <point x="784.305" y="708.031" type="line"/>
      <point x="920.11" y="-87.376" type="line" smooth="yes"/>
      <point x="921.7" y="-93.4385"/>
      <point x="923.288" y="-99.5967"/>
      <point x="924.895" y="-106.024" type="curve" smooth="yes"/>
      <point x="933.366" y="-139.911"/>
      <point x="1003" y="-199.751"/>
      <point x="1003" y="-199.751" type="curve" smooth="yes"/>
      <point x="939.246" y="-199.751" type="line"/>
      <point x="856.553" y="-199.751" type="line"/>
      <point x="721.82" y="-199.751" type="line"/>
      <point x="721.82" y="-199.751"/>
      <point x="768.684" y="-151.743"/>
      <point x="768.684" y="-106.024" type="curve" smooth="yes"/>
      <point x="768.684" y="-103.56"/>
      <point x="768.596" y="-100.965"/>
      <point x="768.486" y="-98.3105" type="curve" smooth="yes"/>
      <point x="680.423" y="466.685" type="line"/>
      <point x="584.548" y="223.972" type="line" smooth="yes"/>
      <point x="582.654" y="215.428"/>
      <point x="581.521" y="207.31"/>
      <point x="581.521" y="200.247" type="curve" smooth="yes"/>
      <point x="581.521" y="154.528"/>
      <point x="619.11" y="112.672"/>
      <point x="619.11" y="112.672" type="curve"/>
      <point x="468.757" y="112.672" type="line"/>
      <point x="323.48" y="509.74" type="line"/>
      <point x="248.792" y="3.32422" type="line"/>
      <point x="250.062" y="3.32422" type="line"/>
      <point x="250.062" y="3.32422"/>
      <point x="248.111" y="-5.2168"/>
      <point x="245.668" y="-17.667" type="curve" smooth="yes"/>
      <point x="235.026" y="-89.7197" type="line" smooth="yes"/>
      <point x="234.6" y="-95.4727"/>
      <point x="234.44" y="-100.971"/>
      <point x="234.44" y="-106.024" type="curve" smooth="yes"/>
      <point x="234.44" y="-151.743"/>
      <point x="281.304" y="-199.751"/>
      <point x="281.304" y="-199.751" type="curve"/>
      <point x="218.819" y="-199.751" type="line"/>
      <point x="134.856" y="-199.751" type="line"/>
      <point x="0.124023" y="-199.751" type="line" smooth="yes"/>
      <point x="0.124023" y="-199.751"/>
      <point x="69.7578" y="-139.911"/>
      <point x="78.2295" y="-106.024" type="curve" smooth="yes"/>
      <point x="79.8281" y="-99.6299"/>
      <point x="81.334" y="-93.5068"/>
      <point x="82.916" y="-87.4736" type="curve" smooth="yes"/>
      <point x="218.819" y="708.226" type="line"/>
      <point x="217.957" y="753.351"/>
      <point x="187.577" y="800"/>
    </contour>
  </outline>
</glyph>
<glyph name="N" format="1">
  <advance width="897"/>
  <unicode hex="004E"/>
  <outline>
    <contour>
      <point x="41.8213" y="799.499" type="curve" smooth="yes"/>
      <point x="175.314" y="799.499" type="line"/>
      <point x="237.572" y="799.499" type="line"/>
      <point x="237.572" y="797.841" type="line"/>
      <point x="241.671" y="799.499" type="line"/>
      <point x="620.391" y="96.1211" type="line"/>
      <point x="620.391" y="799.499" type="line"/>
      <point x="772.522" y="799.499" type="line"/>
      <point x="841.221" y="799.499" type="line" smooth="yes"/>
      <point x="841.221" y="799.499"/>
      <point x="802.252" y="746.604"/>
      <point x="788.331" y="703.478" type="curve" smooth="yes"/>
      <point x="774.434" y="660.353"/>
      <point x="772.522" y="599.649"/>
      <point x="772.522" y="599.649" type="curve"/>
      <point x="772.522" y="-116.707" type="line"/>
      <point x="788.872" y="-157.035"/>
      <point x="822.485" y="-199.751"/>
      <point x="822.485" y="-199.751" type="curve"/>
      <point x="772.522" y="-199.751" type="line"/>
      <point x="620.391" y="-199.751" type="line"/>
      <point x="620.391" y="-187.748" type="line"/>
      <point x="616.39" y="-199.751" type="line"/>
      <point x="237.572" y="468.791" type="line"/>
      <point x="237.572" y="-199.751" type="line"/>
      <point x="157.359" y="-199.751" type="line"/>
      <point x="23.085" y="-199.751" type="line"/>
      <point x="23.085" y="-199.751"/>
      <point x="63.1279" y="-148.806"/>
      <point x="77.0488" y="-105.681" type="curve" smooth="yes"/>
      <point x="80.793" y="-94.0605"/>
      <point x="83.5322" y="-81.1963"/>
      <point x="85.5381" y="-68.501" type="curve" smooth="yes"/>
      <point x="85.5381" y="726.215" type="line"/>
      <point x="68.4648" y="763.186"/>
      <point x="41.8203" y="799.499"/>
    </contour>
  </outline>
</glyph>
<glyph name="O" format="1">
  <advance width="1155"/>
  <unicode hex="004F"/>
  <outline>
    <contour>
      <point x="655" y="800.25" type="curve"/>
      <point x="655" y="800.25"/>
      <point x="1155" y="737.75"/>
      <point x="1155" y="300.249" type="curve" smooth="yes"/>
      <point x="1155" y="-137.251"/>
      <point x="655" y="-199.751"/>
      <point x="655" y="-199.751" type="curve" smooth="yes"/>
      <point x="655" y="-199.751"/>
      <point x="154.999" y="-137.251"/>
      <point x="154.999" y="300.249" type="curve" smooth="yes"/>
      <point x="154.999" y="737.75"/>
      <point x="655" y="800.25"/>
    </contour>
    <contour>
      <point x="654.954" y="643.998" type="curve"/>
      <point x="654.954" y="643.998"/>
      <point x="311.203" y="601.029"/>
      <point x="311.203" y="300.248" type="curve" smooth="yes"/>
      <point x="311.203" y="-0.533203"/>
      <point x="654.954" y="-43.502"/>
      <point x="654.954" y="-43.502" type="curve"/>
      <point x="654.954" y="-43.502"/>
      <point x="998.704" y="-0.533203"/>
      <point x="998.704" y="300.249" type="curve" smooth="yes"/>
      <point x="998.704" y="601.029"/>
      <point x="654.954" y="643.998"/>
    </contour>
  </outline>
</glyph>
<glyph name="P" format="1">
  <advance width="905"/>
  <unicode hex="0050"/>
  <outline>
    <contour>
      <point x="11.5967" y="800.249" type="curve"/>
      <point x="78.9795" y="800.249" type="line"/>
      <point x="146.362" y="800.249" type="line"/>
      <point x="213.159" y="800.249" type="line"/>
      <point x="516.479" y="800.249" type="line"/>
      <point x="605.347" y="800.249" type="line" smooth="yes"/>
      <point x="605.347" y="800.249"/>
      <point x="807.495" y="732.875"/>
      <point x="807.495" y="530.718" type="curve" smooth="yes"/>
      <point x="807.495" y="328.562"/>
      <point x="558.472" y="300.249"/>
      <point x="558.472" y="300.249" type="curve"/>
      <point x="516.479" y="300.249" type="line"/>
      <point x="213.159" y="300.249" type="line"/>
      <point x="213.159" y="-49.458" type="line" smooth="yes"/>
      <point x="215.217" y="-66.9619"/>
      <point x="218.538" y="-86.2334"/>
      <point x="223.901" y="-102.876" type="curve" smooth="yes"/>
      <point x="237.949" y="-146.396"/>
      <point x="277.222" y="-199.751"/>
      <point x="277.222" y="-199.751" type="curve"/>
      <point x="146.362" y="-199.751" type="line"/>
      <point x="11.5967" y="-199.751" type="line"/>
      <point x="11.5967" y="-199.751"/>
      <point x="50.7715" y="-146.396"/>
      <point x="64.8193" y="-102.876" type="curve" smooth="yes"/>
      <point x="78.8447" y="-59.3564"/>
      <point x="78.9795" y="2.39844"/>
      <point x="78.9795" y="2.39844" type="curve"/>
      <point x="78.9795" y="598.102" type="line"/>
      <point x="78.9795" y="598.102"/>
      <point x="78.8438" y="659.854"/>
      <point x="64.8193" y="703.374" type="curve" smooth="yes"/>
      <point x="50.7715" y="746.895"/>
      <point x="11.5967" y="800.249"/>
    </contour>
    <contour>
      <point x="213.159" y="690.874" type="line"/>
      <point x="213.159" y="425.249" type="line"/>
      <point x="464.722" y="425.249" type="line" smooth="yes"/>
      <point x="464.722" y="425.249"/>
      <point x="639.038" y="429.639"/>
      <point x="639.038" y="564.41" type="curve" smooth="yes"/>
      <point x="639.038" y="678.065"/>
      <point x="537.523" y="689.934"/>
      <point x="505.64" y="690.874" type="curve" smooth="yes"/>
    </contour>
  </outline>
</glyph>
<glyph name="Q" format="1">
  <advance width="1071"/>
  <unicode hex="0051"/>
  <outline>
    <contour>
      <point x="539.086" y="800.249" type="curve"/>
      <point x="539.086" y="800.249"/>
      <point x="1038.07" y="737.876"/>
      <point x="1038.07" y="301.266" type="curve" smooth="yes"/>
      <point x="1038.07" y="-135.345"/>
      <point x="539.086" y="-197.718"/>
      <point x="539.086" y="-197.718" type="curve"/>
      <point x="539.086" y="-197.718"/>
      <point x="40.1025" y="-135.345"/>
      <point x="40.1025" y="301.266" type="curve" smooth="yes"/>
      <point x="40.1025" y="737.876"/>
      <point x="539.086" y="800.249"/>
    </contour>
    <contour>
      <point x="539.132" y="644.318" type="curve" smooth="yes"/>
      <point x="539.132" y="644.318"/>
      <point x="196.081" y="601.438"/>
      <point x="196.081" y="301.268" type="curve" smooth="yes"/>
      <point x="196.081" y="1.09766"/>
      <point x="539.132" y="-41.7832"/>
      <point x="539.132" y="-41.7832" type="curve"/>
      <point x="539.132" y="-41.7832"/>
      <point x="882.183" y="1.09766"/>
      <point x="882.183" y="301.268" type="curve" smooth="yes"/>
      <point x="882.183" y="601.437"/>
      <point x="539.132" y="644.318"/>
    </contour>
    <contour>
      <point x="414.731" y="239.062" type="line"/>
      <point x="414.731" y="239.062"/>
      <point x="464.957" y="199.896"/>
      <point x="505.932" y="185.876" type="curve" smooth="yes"/>
      <point x="546.906" y="171.883"/>
      <point x="605.062" y="171.814"/>
      <point x="605.062" y="171.814" type="curve"/>
      <point x="605.065" y="114.147" type="line"/>
      <point x="414.731" y="112.935" type="line"/>
    </contour>
    <contour>
      <point x="605.065" y="114.147" type="line"/>
      <point x="605.065" y="114.147"/>
      <point x="583.63" y="65.9502"/>
      <point x="753.104" y="-27.6094" type="curve" smooth="yes"/>
      <point x="894.332" y="-105.575"/>
      <point x="1006.88" y="-119.751"/>
      <point x="1006.88" y="-119.751" type="curve"/>
      <point x="893.9" y="-197.717" type="line"/>
      <point x="893.9" y="-197.717"/>
      <point x="737.077" y="-169.942"/>
      <point x="605.065" y="-84.3115" type="curve" smooth="yes"/>
      <point x="459.271" y="10.2588"/>
      <point x="414.731" y="114.147"/>
      <point x="414.731" y="114.147" type="curve"/>
    </contour>
  </outline>
</glyph>
<glyph name="R" format="1">
  <advance width="1000"/>
  <unicode hex="0052"/>
  <outline>
    <contour>
      <point x="99.5" y="801.968" type="curve"/>
      <point x="167.646" y="801.968" type="line"/>
      <point x="234.616" y="801.968" type="line"/>
      <point x="302.174" y="801.968" type="line"/>
      <point x="572.406" y="801.968" type="line"/>
      <point x="606.283" y="801.968" type="line"/>
      <point x="673.841" y="801.968" type="line"/>
      <point x="673.841" y="801.968"/>
      <point x="876.515" y="734.419"/>
      <point x="876.515" y="531.736" type="curve" smooth="yes"/>
      <point x="876.515" y="358.653"/>
      <point x="704.429" y="308.911"/>
      <point x="654.063" y="298.024" type="curve"/>
      <point x="657.969" y="294.28"/>
      <point x="662.007" y="291.228"/>
      <point x="666.106" y="289.017" type="curve" smooth="yes"/>
      <point x="666.438" y="288.883"/>
      <point x="666.752" y="288.649"/>
      <point x="667.085" y="288.527" type="curve" smooth="yes"/>
      <point x="670.2" y="287.395"/>
      <point x="673.151" y="286.109"/>
      <point x="676.093" y="284.709" type="curve" smooth="yes"/>
      <point x="747.337" y="254.345"/>
      <point x="771.119" y="150.411"/>
      <point x="814.734" y="19.5684" type="curve" smooth="yes"/>
      <point x="848.997" y="-83.2217"/>
      <point x="890.125" y="-199.751"/>
      <point x="890.124" y="-199.751" type="curve" smooth="yes"/>
      <point x="890.124" y="-199.751"/>
      <point x="737.093" y="-187.511"/>
      <point x="691.367" y="-99.3926" type="curve" smooth="yes"/>
      <point x="686.976" y="-92.252"/>
      <point x="683.354" y="-84.5557"/>
      <point x="680.597" y="-76.2861" type="curve" smooth="yes"/>
      <point x="646.817" y="25.0557"/>
      <point x="606.283" y="126.388"/>
      <point x="606.283" y="126.388" type="curve"/>
      <point x="606.283" y="126.388"/>
      <point x="577.821" y="200.295"/>
      <point x="547.047" y="238.593" type="curve" smooth="yes"/>
      <point x="546.355" y="239.415"/>
      <point x="545.685" y="240.258"/>
      <point x="544.991" y="241.041" type="curve" smooth="yes"/>
      <point x="544.611" y="241.492"/>
      <point x="544.197" y="241.874"/>
      <point x="543.816" y="242.313" type="curve" smooth="yes"/>
      <point x="542.747" y="243.487"/>
      <point x="541.656" y="244.572"/>
      <point x="540.586" y="245.643" type="curve" smooth="yes"/>
      <point x="522.838" y="263.391"/>
      <point x="481.32" y="277.736"/>
      <point x="445.318" y="287.45" type="curve" smooth="yes"/>
      <point x="421.781" y="292.815"/>
      <point x="403.511" y="295.283"/>
      <point x="403.512" y="295.283" type="curve" smooth="yes"/>
      <point x="302.174" y="295.283" type="line"/>
      <point x="302.174" y="2.33594" type="line"/>
      <point x="302.174" y="2.33594"/>
      <point x="302.311" y="-59.5781"/>
      <point x="316.371" y="-103.211" type="curve" smooth="yes"/>
      <point x="330.456" y="-146.844"/>
      <point x="369.732" y="-200.338"/>
      <point x="369.732" y="-200.338" type="curve"/>
      <point x="234.616" y="-199.849" type="line"/>
      <point x="234.616" y="-200.338" type="line"/>
      <point x="99.5" y="-200.338" type="line"/>
      <point x="99.5" y="-200.338"/>
      <point x="138.281" y="-146.647"/>
      <point x="152.959" y="-103.211" type="curve" smooth="yes"/>
      <point x="160.909" y="-79.6836"/>
      <point x="165.299" y="-51.5518"/>
      <point x="167.646" y="-31.4434" type="curve" smooth="yes"/>
      <point x="167.646" y="599.294" type="line"/>
      <point x="167.059" y="599.294" type="line"/>
      <point x="167.059" y="599.294"/>
      <point x="167.021" y="661.208"/>
      <point x="152.959" y="704.842" type="curve" smooth="yes"/>
      <point x="138.875" y="748.475"/>
      <point x="99.5" y="801.968"/>
    </contour>
    <contour>
      <point x="302.174" y="700.631" type="line"/>
      <point x="302.174" y="426.874" type="line"/>
      <point x="600.604" y="426.874" type="line" smooth="yes"/>
      <point x="602.837" y="427.764"/>
      <point x="605.089" y="428.734"/>
      <point x="607.36" y="429.714" type="curve" smooth="yes"/>
      <point x="654.121" y="449.873"/>
      <point x="707.62" y="489.509"/>
      <point x="707.62" y="565.515" type="curve" smooth="yes"/>
      <point x="707.62" y="700.631"/>
      <point x="572.406" y="700.631"/>
      <point x="572.406" y="700.631" type="curve"/>
    </contour>
  </outline>
</glyph>
<glyph name="S" format="1">
  <advance width="745"/>
  <unicode hex="0053"/>
  <outline>
    <contour>
      <point x="372.03" y="798.04" type="curve" smooth="yes"/>
      <point x="401.813" y="799.105"/>
      <point x="529.318" y="788.976"/>
      <point x="539.851" y="785.026" type="curve" smooth="yes"/>
      <point x="551.085" y="780.813"/>
      <point x="614.244" y="605.236"/>
      <point x="614.243" y="596.811" type="curve" smooth="yes"/>
      <point x="614.243" y="588.385"/>
      <point x="517.358" y="671.251"/>
      <point x="479.442" y="688.102" type="curve" smooth="yes"/>
      <point x="441.526" y="704.953"/>
      <point x="308.43" y="727.472"/>
      <point x="243.833" y="671.3" type="curve" smooth="yes"/>
      <point x="179.236" y="615.129"/>
      <point x="163.503" y="529.423"/>
      <point x="280.059" y="464.826" type="curve" smooth="yes"/>
      <point x="396.615" y="400.229"/>
      <point x="598.799" y="303.37"/>
      <point x="632.502" y="252.816" type="curve" smooth="yes"/>
      <point x="666.205" y="202.262"/>
      <point x="726.595" y="122.191"/>
      <point x="720.978" y="70.2324" type="curve" smooth="yes"/>
      <point x="715.36" y="18.2744"/>
      <point x="668.989" y="-137.622"/>
      <point x="572.095" y="-179.751" type="curve" smooth="yes"/>
      <point x="475.198" y="-221.88"/>
      <point x="280.059" y="-196.552"/>
      <point x="280.059" y="-196.552" type="curve"/>
      <point x="215.762" y="-174.24"/>
      <point x="172.145" y="-193.116"/>
      <point x="111.558" y="-202.185" type="curve"/>
      <point x="9" y="26.7236" type="line"/>
      <point x="9" y="26.7236"/>
      <point x="104.515" y="-39.2949"/>
      <point x="121.366" y="-49.126" type="curve" smooth="yes"/>
      <point x="138.218" y="-58.9561"/>
      <point x="255.288" y="-103.041"/>
      <point x="374.652" y="-90.4014" type="curve" smooth="yes"/>
      <point x="494.018" y="-77.7637"/>
      <point x="549.915" y="-20.7305"/>
      <point x="554.127" y="27.0156" type="curve" smooth="yes"/>
      <point x="558.34" y="74.7607"/>
      <point x="515.671" y="156.501"/>
      <point x="481.968" y="183.182" type="curve" smooth="yes"/>
      <point x="448.265" y="209.863"/>
      <point x="152.188" y="380.598"/>
      <point x="129.719" y="405.875" type="curve" smooth="yes"/>
      <point x="107.25" y="431.152"/>
      <point x="42.6924" y="464.805"/>
      <point x="39.8838" y="578.552" type="curve" smooth="yes"/>
      <point x="37.0752" y="692.299"/>
      <point x="63.7754" y="696.552"/>
      <point x="63.7754" y="696.551" type="curve" smooth="yes"/>
      <point x="63.7754" y="696.551"/>
      <point x="135.344" y="786.435"/>
      <point x="184.493" y="787.843" type="curve" smooth="yes"/>
      <point x="233.524" y="789.247"/>
      <point x="267.875" y="794.844"/>
      <point x="367.368" y="797.651" type="curve" smooth="yes"/>
      <point x="368.422" y="797.826"/>
      <point x="370.044" y="797.969"/>
    </contour>
  </outline>
</glyph>
<glyph name="T" format="1">
  <advance width="982"/>
  <unicode hex="0054"/>
  <outline>
    <contour>
      <point x="46.1328" y="800.937" type="line"/>
      <point x="921.92" y="800.937" type="line"/>
      <point x="921.92" y="732.516" type="line"/>
      <point x="921.92" y="597.629" type="line" smooth="yes"/>
      <point x="921.92" y="597.629"/>
      <point x="875.429" y="633.045"/>
      <point x="834.732" y="648.651" type="curve"/>
      <point x="561.733" y="648.651" type="line"/>
      <point x="561.733" y="-65.4668" type="line" smooth="yes"/>
      <point x="563.808" y="-79.3066"/>
      <point x="566.762" y="-93.6689"/>
      <point x="571.019" y="-106.422" type="curve" smooth="yes"/>
      <point x="585.078" y="-148.472"/>
      <point x="624.289" y="-200.061"/>
      <point x="624.289" y="-200.061" type="curve"/>
      <point x="561.733" y="-200.061" type="line"/>
      <point x="561.733" y="-200.354" type="line"/>
      <point x="409.447" y="-200.354" type="line"/>
      <point x="409.447" y="-200.061" type="line"/>
      <point x="342.786" y="-200.061" type="line"/>
      <point x="342.786" y="-200.061"/>
      <point x="382.095" y="-148.472"/>
      <point x="396.154" y="-106.422" type="curve" smooth="yes"/>
      <point x="404.769" y="-80.6182"/>
      <point x="408.143" y="-48.2715"/>
      <point x="409.447" y="-27.0537" type="curve" smooth="yes"/>
      <point x="409.447" y="648.651" type="line"/>
      <point x="133.223" y="648.651" type="line"/>
      <point x="92.5264" y="633.045"/>
      <point x="46.1328" y="597.629"/>
      <point x="46.1328" y="597.629" type="curve" smooth="yes"/>
      <point x="46.1328" y="648.651" type="line"/>
    </contour>
  </outline>
</glyph>
<glyph name="U" format="1">
  <advance width="990"/>
  <unicode hex="0055"/>
  <outline>
    <contour>
      <point x="33.0459" y="800.249" type="curve"/>
      <point x="148.668" y="800.249" type="line"/>
      <point x="221.435" y="800.249" type="line"/>
      <point x="284.101" y="800.249" type="line"/>
      <point x="284.101" y="800.249"/>
      <point x="244.662" y="746.669"/>
      <point x="230.555" y="702.966" type="curve" smooth="yes"/>
      <point x="226.406" y="690.089"/>
      <point x="223.507" y="675.683"/>
      <point x="221.435" y="661.679" type="curve" smooth="yes"/>
      <point x="221.435" y="94.0605" type="line" smooth="yes"/>
      <point x="221.896" y="93.4316"/>
      <point x="340.994" y="-69.0273"/>
      <point x="497.301" y="-69.0273" type="curve" smooth="yes"/>
      <point x="653.909" y="-69.0273"/>
      <point x="770.519" y="94.1582"/>
      <point x="770.519" y="94.1582" type="curve" smooth="yes"/>
      <point x="770.519" y="660.404" type="line" smooth="yes"/>
      <point x="768.437" y="674.801"/>
      <point x="765.477" y="689.698"/>
      <point x="761.202" y="702.966" type="curve" smooth="yes"/>
      <point x="747.095" y="746.669"/>
      <point x="707.755" y="800.249"/>
      <point x="707.755" y="800.249" type="curve" smooth="yes"/>
      <point x="823.377" y="800.249" type="line"/>
      <point x="896.046" y="800.249" type="line"/>
      <point x="958.81" y="800.249" type="line"/>
      <point x="958.81" y="800.249"/>
      <point x="919.371" y="746.669"/>
      <point x="905.264" y="702.966" type="curve" smooth="yes"/>
      <point x="901.058" y="689.908"/>
      <point x="898.123" y="675.276"/>
      <point x="896.046" y="661.091" type="curve" smooth="yes"/>
      <point x="896.046" y="94.1582" type="line"/>
      <point x="896.046" y="-109.823" type="line"/>
      <point x="770.519" y="-109.823" type="line"/>
      <point x="770.519" y="-78.4414" type="line"/>
      <point x="770.519" y="-78.4414"/>
      <point x="663.967" y="-208.39"/>
      <point x="497.301" y="-204.361" type="curve" smooth="yes"/>
      <point x="331.03" y="-200.342"/>
      <point x="221.953" y="-79.1172"/>
      <point x="221.435" y="-78.54" type="curve" smooth="yes"/>
      <point x="221.435" y="-110.804" type="line"/>
      <point x="97.1826" y="-110.804" type="line"/>
      <point x="97.1826" y="650.303" type="line" smooth="yes"/>
      <point x="95.1074" y="667.608"/>
      <point x="91.7734" y="686.577"/>
      <point x="86.4932" y="702.966" type="curve" smooth="yes"/>
      <point x="72.3857" y="746.669"/>
      <point x="33.0459" y="800.249"/>
    </contour>
  </outline>
</glyph>
<glyph name="V" format="1">
  <advance width="1001"/>
  <unicode hex="0056"/>
  <outline>
    <contour>
      <point x="64.7188" y="800.249" type="curve"/>
      <point x="199.484" y="800.249" type="line"/>
      <point x="246.652" y="800.249" type="line"/>
      <point x="300.559" y="800.249" type="line" smooth="yes"/>
      <point x="300.559" y="800.249"/>
      <point x="276.585" y="770.382"/>
      <point x="269.113" y="733.55" type="curve"/>
      <point x="516.184" y="0.249023" type="line"/>
      <point x="750.656" y="696.147" type="line" smooth="yes"/>
      <point x="750.656" y="696.245" type="line" smooth="yes"/>
      <point x="751.568" y="702.105"/>
      <point x="752.023" y="707.626"/>
      <point x="752.023" y="712.651" type="curve" smooth="yes"/>
      <point x="752.023" y="758.383"/>
      <point x="718.332" y="800.249"/>
      <point x="718.332" y="800.249" type="curve" smooth="yes"/>
      <point x="785.715" y="800.249" type="line"/>
      <point x="853.098" y="800.249" type="line"/>
      <point x="940.793" y="800.249" type="line"/>
      <point x="598.996" y="-156.489" type="line"/>
      <point x="608.634" y="-178.659"/>
      <point x="614.719" y="-199.751"/>
      <point x="614.719" y="-199.751" type="curve"/>
      <point x="583.566" y="-199.751" type="line"/>
      <point x="509.934" y="-199.848" type="line"/>
      <point x="509.934" y="-199.751" type="line"/>
      <point x="448.801" y="-199.751" type="line"/>
      <point x="122.531" y="713.823" type="line"/>
      <point x="101.731" y="754.121"/>
      <point x="64.7188" y="800.249"/>
    </contour>
  </outline>
</glyph>
<glyph name="W" format="1">
  <advance width="1000"/>
  <unicode hex="0057"/>
  <outline>
    <contour>
      <point x="2.6875" y="799.343" type="curve"/>
      <point x="2.68848" y="799.343" type="line"/>
      <point x="137.43" y="799.343" type="line"/>
      <point x="221.24" y="799.343" type="line"/>
      <point x="283.684" y="799.343" type="line"/>
      <point x="283.684" y="799.343"/>
      <point x="236.852" y="751.367"/>
      <point x="236.852" y="705.678" type="curve" smooth="yes"/>
      <point x="236.852" y="703.153"/>
      <point x="236.93" y="700.499"/>
      <point x="237.045" y="697.775" type="curve" smooth="yes"/>
      <point x="325.052" y="133.346" type="line"/>
      <point x="420.863" y="375.899" type="line" smooth="yes"/>
      <point x="422.756" y="384.438"/>
      <point x="423.889" y="392.551"/>
      <point x="423.889" y="399.608" type="curve" smooth="yes"/>
      <point x="423.889" y="445.297"/>
      <point x="386.324" y="487.126"/>
      <point x="386.324" y="487.126" type="curve"/>
      <point x="536.579" y="487.126" type="line"/>
      <point x="681.76" y="90.3184" type="line"/>
      <point x="756.399" y="596.402" type="line"/>
      <point x="755.131" y="596.402" type="line"/>
      <point x="755.131" y="596.402"/>
      <point x="757.079" y="604.937"/>
      <point x="759.521" y="617.379" type="curve" smooth="yes"/>
      <point x="770.156" y="689.384" type="line" smooth="yes"/>
      <point x="770.582" y="695.134"/>
      <point x="770.741" y="700.629"/>
      <point x="770.741" y="705.678" type="curve" smooth="yes"/>
      <point x="770.741" y="751.367"/>
      <point x="723.909" y="799.343"/>
      <point x="723.909" y="799.343" type="curve"/>
      <point x="858.65" y="799.343" type="line"/>
      <point x="941.29" y="799.343" type="line"/>
      <point x="1004.9" y="799.343" type="line"/>
      <point x="1004.9" y="799.343"/>
      <point x="935.316" y="739.543"/>
      <point x="926.85" y="705.678" type="curve" smooth="yes"/>
      <point x="925.253" y="699.288"/>
      <point x="923.747" y="693.17"/>
      <point x="922.167" y="687.14" type="curve" smooth="yes"/>
      <point x="786.353" y="-108.037" type="line"/>
      <point x="787.214" y="-153.132"/>
      <point x="817.574" y="-199.751"/>
      <point x="817.574" y="-199.751" type="curve"/>
      <point x="661.466" y="-199.751" type="line"/>
      <point x="606.828" y="-49.3984" type="line"/>
      <point x="498.527" y="217.839" type="line"/>
      <point x="364.762" y="-120.916" type="line"/>
      <point x="364.858" y="-121.696" type="line"/>
      <point x="364.273" y="-121.989" type="line"/>
      <point x="333.637" y="-199.75" type="line"/>
      <point x="236.85" y="-199.75" type="line"/>
      <point x="177.528" y="-199.75" type="line"/>
      <point x="177.528" y="-199.75"/>
      <point x="220.033" y="-153.131"/>
      <point x="221.239" y="-108.037" type="curve"/>
      <point x="85.5225" y="687.043" type="line" smooth="yes"/>
      <point x="83.9336" y="693.102"/>
      <point x="82.3477" y="699.256"/>
      <point x="80.7412" y="705.678" type="curve" smooth="yes"/>
      <point x="72.2754" y="739.543"/>
      <point x="2.6875" y="799.343"/>
    </contour>
  </outline>
</glyph>
<glyph name="X" format="1">
  <advance width="907"/>
  <unicode hex="0058"/>
  <outline>
    <contour>
      <point x="278.693" y="-43.624" type="line"/>
      <point x="278.693" y="-43.624"/>
      <point x="247.109" y="-77.0098"/>
      <point x="247.109" y="-113.473" type="curve" smooth="yes"/>
      <point x="247.109" y="-145.712"/>
      <point x="285.192" y="-199.751"/>
      <point x="285.192" y="-199.751" type="curve"/>
      <point x="153.366" y="-199.751" type="line"/>
      <point x="152.354" y="-43.624" type="line"/>
    </contour>
    <contour>
      <point x="860.392" y="800.618" type="line"/>
      <point x="860.392" y="800.618"/>
      <point x="813.194" y="768.239"/>
      <point x="797.581" y="737.014" type="curve" smooth="yes"/>
      <point x="772.406" y="686.664"/>
      <point x="781.969" y="643.338"/>
      <point x="781.969" y="643.338" type="curve"/>
      <point x="672.68" y="674.563" type="line"/>
      <point x="734.053" y="800.618" type="line"/>
    </contour>
    <contour>
      <point x="781.969" y="643.338" type="line"/>
      <point x="172.168" y="-199.751" type="line"/>
      <point x="17.3027" y="-199.751" type="line"/>
      <point x="734.228" y="799.465" type="line"/>
    </contour>
    <contour>
      <point x="622.719" y="-43.624" type="curve"/>
      <point x="749.058" y="-43.624" type="line"/>
      <point x="748.046" y="-199.751" type="line"/>
      <point x="616.22" y="-199.751" type="line"/>
      <point x="616.22" y="-199.751"/>
      <point x="654.303" y="-145.712"/>
      <point x="654.303" y="-113.473" type="curve" smooth="yes"/>
      <point x="654.303" y="-77.0098"/>
      <point x="622.719" y="-43.624"/>
    </contour>
    <contour>
      <point x="41.0215" y="800.619" type="curve"/>
      <point x="167.36" y="800.619" type="line"/>
      <point x="228.733" y="674.563" type="line"/>
      <point x="119.444" y="643.338" type="line"/>
      <point x="119.444" y="643.338"/>
      <point x="129.007" y="686.665"/>
      <point x="103.831" y="737.015" type="curve" smooth="yes"/>
      <point x="88.2188" y="768.24"/>
      <point x="41.0215" y="800.619"/>
    </contour>
    <contour>
      <point x="119.444" y="643.338" type="line"/>
      <point x="167.186" y="799.465" type="line"/>
      <point x="884.11" y="-199.751" type="line"/>
      <point x="729.244" y="-199.751" type="line"/>
    </contour>
  </outline>
</glyph>
<glyph name="Y" format="1">
  <advance width="893"/>
  <unicode hex="0059"/>
  <outline>
    <contour>
      <point x="34" y="800.624" type="curve" smooth="yes"/>
      <point x="150.509" y="799.453" type="line"/>
      <point x="457.783" y="430.704" type="line"/>
      <point x="728.174" y="799.453" type="line"/>
      <point x="853.367" y="800.624" type="line"/>
      <point x="853.367" y="800.624"/>
      <point x="806.236" y="775.262"/>
      <point x="790.624" y="750.859" type="curve" smooth="yes"/>
      <point x="765.449" y="711.512"/>
      <point x="759.399" y="674.553"/>
      <point x="759.399" y="674.553" type="curve"/>
      <point x="540.823" y="364.937" type="line"/>
      <point x="540.823" y="331.076" type="line"/>
      <point x="540.823" y="174.951" type="line"/>
      <point x="540.823" y="-65.9707" type="line" smooth="yes"/>
      <point x="542.891" y="-79.6064"/>
      <point x="545.805" y="-93.7188"/>
      <point x="549.995" y="-106.271" type="curve" smooth="yes"/>
      <point x="564.031" y="-148.249"/>
      <point x="603.273" y="-199.751"/>
      <point x="603.273" y="-199.751" type="curve" smooth="yes"/>
      <point x="540.823" y="-199.751" type="line"/>
      <point x="450.66" y="-199.751" type="line"/>
      <point x="316.002" y="-199.751" type="line" smooth="yes"/>
      <point x="316.002" y="-199.751"/>
      <point x="355.146" y="-148.249"/>
      <point x="369.183" y="-106.271" type="curve" smooth="yes"/>
      <point x="377.782" y="-80.5107"/>
      <point x="381.15" y="-48.3164"/>
      <point x="382.453" y="-27.1338" type="curve" smooth="yes"/>
      <point x="382.453" y="355.959" type="line"/>
      <point x="103.671" y="674.553" type="line"/>
      <point x="103.671" y="674.553"/>
      <point x="122.016" y="711.512"/>
      <point x="96.8408" y="750.859" type="curve" smooth="yes"/>
      <point x="81.2275" y="775.262"/>
      <point x="34" y="800.624"/>
    </contour>
  </outline>
</glyph>
<glyph name="Z" format="1">
  <advance width="1000"/>
  <unicode hex="005A"/>
  <outline>
    <contour>
      <point x="413.877" y="1.93164" type="line"/>
      <point x="145.49" y="-136.983" type="line"/>
      <point x="636.874" y="612.443" type="line"/>
      <point x="881.895" y="736.805" type="line"/>
    </contour>
    <contour>
      <point x="882.188" y="-198.615" type="line"/>
      <point x="882.188" y="-198.615"/>
      <point x="843.931" y="-158.586"/>
      <point x="811.527" y="-144.691" type="curve" smooth="yes"/>
      <point x="779.123" y="-130.819"/>
      <point x="733.13" y="-130.755"/>
      <point x="733.13" y="-130.755" type="curve"/>
      <point x="734.176" y="-64.1055" type="line"/>
      <point x="882.188" y="-64.5928" type="line"/>
    </contour>
    <contour>
      <point x="143.679" y="799.557" type="line"/>
      <point x="143.679" y="799.557"/>
      <point x="183.902" y="760.738"/>
      <point x="216.717" y="746.844" type="curve" smooth="yes"/>
      <point x="249.531" y="732.972"/>
      <point x="295.745" y="730.987"/>
      <point x="295.745" y="730.987" type="curve"/>
      <point x="295.048" y="666.258" type="line"/>
      <point x="143.679" y="666.258" type="line"/>
    </contour>
    <contour>
      <point x="144.537" y="737.129" type="line"/>
      <point x="856.441" y="736.003" type="line"/>
      <point x="883.012" y="736.003" type="line"/>
      <point x="768.483" y="612.094" type="line"/>
      <point x="143.124" y="610.968" type="line"/>
    </contour>
    <contour>
      <point x="882.035" y="-134.601" type="line"/>
      <point x="143.641" y="-136.99" type="line"/>
      <point x="333.447" y="3.81445" type="line"/>
      <point x="882.598" y="4.94141" type="line"/>
    </contour>
  </outline>
</glyph>
